<?xml version="1.0" encoding="UTF-8" standalone="no"?>
<!-- Created with Inkscape (http://www.inkscape.org/) -->

<svg
   version="1.1"
   id="svg1"
   xml:space="preserve"
   width="151.5181"
   height="134.12114"
   xmlns:inkscape="http://www.inkscape.org/namespaces/inkscape"
   xmlns:sodipodi="http://sodipodi.sourceforge.net/DTD/sodipodi-0.dtd"
   xmlns="http://www.w3.org/2000/svg"
   xmlns:svg="http://www.w3.org/2000/svg"><defs
     id="defs1" /><sodipodi:namedview
     id="namedview1"
     pagecolor="#505050"
     bordercolor="#eeeeee"
     borderopacity="1"
     inkscape:showpageshadow="0"
     inkscape:pageopacity="0"
     inkscape:pagecheckerboard="0"
     inkscape:deskcolor="#d1d1d1" /><inkscape:clipboard
     min="-2.4779403e-07,2.8852123e-06"
     max="151.51809,134.12114"
     geom-min="-2.4779403e-07,0.54254086"
     geom-max="151.51809,133.5786" /><g
     id="g1"
     transform="matrix(3.7795276,0,0,3.7795276,2.4779399e-7,-2.8852124e-6)"><g
       id="g2"
       transform="matrix(0.84933462,0,0,1,-90.251312,-66.047652)"><g
         id="g5"
         transform="translate(34.492221,-21.708087)"
         style="stroke-width:1.08508"><g
           id="g4"><circle
             style="fill:#004b8a;fill-opacity:0.713725;fill-rule:evenodd;stroke-width:0.287093"
             id="path1-5-2"
             cx="101.59574"
             cy="105.43691"
             r="17.373901" /><circle
             style="fill:#004b8a;fill-opacity:0.712528;fill-rule:evenodd;stroke-width:0.287093"
             id="path1-5-2-6"
             cx="89.142876"
             cy="105.47787"
             r="17.373901" /></g><ellipse
           style="fill:#004b8a;fill-opacity:1;fill-rule:evenodd;stroke:#000000;stroke-width:0.287093;stroke-opacity:0.0713362"
           id="path1-5-2-7"
           cx="95.630035"
           cy="105.49885"
           rx="18.155647"
           ry="17.599562" /></g></g><path
       d="M 28.44282,17.368187 28.124137,17.06825 C 27.880438,16.824552 27.636739,16.655837 27.39304,16.543361 v -0.562383 c 0,-1.949591 -0.768589,-3.786706 -2.155798,-5.173915 -1.38721,-1.3872098 -3.224324,-2.1557988 -5.173916,-2.1557988 -1.949592,0 -3.786707,0.768589 -5.173916,2.1557988 -1.387209,1.387209 -2.155798,3.224324 -2.155798,5.173915 v 0.562383 c -0.243699,0.112476 -0.506144,0.299937 -0.731097,0.524889 l -0.318683,0.299937 c -0.224953,0.224953 -0.356175,0.524891 -0.356175,0.843574 v 1.630908 c 0,0.318683 0.131222,0.61862 0.356175,0.843573 l 0.318683,0.299938 c 0.468652,0.468651 0.974796,0.71235 1.499686,0.71235 h 0.431159 c 0.281191,0 0.543636,-0.112477 0.731097,-0.299937 0.187461,-0.187461 0.299937,-0.449906 0.299937,-0.731097 v -4.686518 c 0,-1.387209 0.562382,-2.680688 1.555924,-3.655483 0.993542,-0.974797 2.324513,-1.462194 3.711722,-1.405956 2.680689,0.09373 4.87398,2.436989 4.87398,5.211408 v 4.555295 c 0,0.506144 0.374921,0.937304 0.881064,1.012288 -0.224952,0.61862 -0.562382,1.199749 -0.974795,1.687146 -0.824827,0.956049 -2.00583,1.518432 -3.899183,1.837115 -0.168715,-0.412413 -0.581129,-0.712351 -1.068526,-0.712351 -0.487398,0 -1.162257,0.524891 -1.162257,1.162257 0,0.637366 0.52489,1.162256 1.162257,1.162256 0.637366,0 1.012288,-0.393667 1.124764,-0.899811 1.537178,-0.262445 3.205579,-0.731097 4.367835,-2.080813 0.52489,-0.618621 0.937304,-1.330972 1.199749,-2.137053 h 0.112476 c 0.03749,0 0.09373,0 0.131222,-0.01875 l 0.281192,-0.112476 v 0 c 0.281191,-0.112477 0.562382,-0.299937 0.824827,-0.562382 l 0.318683,-0.299937 c 0.224953,-0.224953 0.356176,-0.52489 0.356176,-0.843574 v -1.630908 c 0,-0.318683 -0.131223,-0.61862 -0.356176,-0.843573 v 0 z m -8.360749,8.754415 c -0.243698,0 -0.449905,-0.206207 -0.449905,-0.449905 0,-0.243699 0.206207,-0.449906 0.449905,-0.449906 0.2437,0 0.449906,0.206207 0.449906,0.449906 0,0.243698 -0.206206,0.449905 -0.449906,0.449905 z m 8.004574,-6.279933 c 0,0.131223 -0.05624,0.243699 -0.149969,0.337429 l -0.318683,0.299938 c -0.206207,0.18746 -0.393668,0.337429 -0.599874,0.412413 l -0.224953,0.09373 h -0.656113 c -0.168714,0 -0.299937,-0.149969 -0.299937,-0.33743 v -4.555295 c 0,-3.14934 -2.493228,-5.792536 -5.548838,-5.905013 -1.57467,-0.05623 -3.093101,0.506144 -4.217865,1.612162 -1.143511,1.106019 -1.780877,2.586958 -1.780877,4.161628 v 4.686518 c 0,0.09373 -0.03749,0.168715 -0.09373,0.224953 -0.05624,0.05624 -0.149969,0.09373 -0.224953,0.09373 h -0.43116 c -0.318683,0 -0.656113,-0.168715 -1.012288,-0.506144 l -0.318683,-0.299937 c -0.09373,-0.09373 -0.149969,-0.206207 -0.149969,-0.337429 v -1.630908 c 0,-0.131223 0.05624,-0.243699 0.149969,-0.33743 l 0.318683,-0.299936 c 0.224953,-0.224952 0.468652,-0.374921 0.674859,-0.449905 0.149968,-0.03749 0.262445,-0.187461 0.262445,-0.33743 v -0.787335 c 0,-1.762131 0.693604,-3.411785 1.949591,-4.667771 1.255987,-1.255988 2.905641,-1.9495918 4.667771,-1.9495918 1.762132,0 3.411786,0.6936038 4.667773,1.9495918 1.255987,1.255986 1.949591,2.90564 1.949591,4.667771 v 0.787335 c 0,0.149969 0.09373,0.281192 0.243699,0.33743 0.224953,0.07498 0.468652,0.224953 0.693605,0.449905 l 0.318683,0.299937 c 0.09373,0.09373 0.149969,0.206207 0.149969,0.33743 v 1.630908 0 z"
       id="path1"
       style="fill:#5fe4cb;fill-opacity:1;stroke-width:0.264583" /><path
       d="m 24.414066,17.333718 c 0,-1.237241 -0.52489,-2.436989 -1.462194,-3.261817 -0.937304,-0.824826 -2.174545,-1.218494 -3.411786,-1.087271 -2.024575,0.224952 -3.636737,1.855861 -3.842944,3.880436 -0.112476,1.162257 0.206207,2.305767 0.937304,3.205579 v 2.005829 c 0,0.187461 0.09373,0.33743 0.262445,0.412414 0.05624,0.03749 0.131223,0.03749 0.187461,0.03749 0.112476,0 0.206206,-0.03749 0.299937,-0.112476 l 1.124764,-0.993544 c 0.487398,0.18746 1.012288,0.281191 1.537177,0.281191 2.418244,0 4.367836,-1.968338 4.367836,-4.367835 z m -6.20495,3.430531 -0.86232,0.749843 v -1.57467 c 0,-0.09373 -0.03749,-0.168714 -0.09373,-0.224953 v -0.03749 c -0.656113,-0.768587 -0.95605,-1.743383 -0.862319,-2.736925 0.168714,-1.687146 1.537178,-3.055609 3.224324,-3.261816 1.068526,-0.112477 2.080815,0.206207 2.86815,0.918558 0.787335,0.693604 1.218494,1.687146 1.218494,2.736926 0,2.024576 -1.649654,3.67423 -3.674231,3.67423 -2.024575,0 -1.012288,-0.112476 -1.462193,-0.299937 -0.131222,-0.05624 -0.262445,-0.03749 -0.374922,0.05623 v 0 z"
       id="path2"
       style="fill:#5fe4cb;fill-opacity:1;stroke-width:0.264583" /><path
       d="m 22.185206,16.170782 c -0.131223,-0.131222 -0.356175,-0.131222 -0.506144,0 l -2.399497,2.399497 -0.824828,-0.824827 c -0.131222,-0.131222 -0.356175,-0.131222 -0.506144,0 -0.149968,0.131223 -0.131222,0.356176 0,0.506144 l 1.068526,1.068526 c 0.07499,0.07498 0.149969,0.09373 0.2437,0.09373 0.09373,0 0.18746,-0.03749 0.243698,-0.09373 l 2.643197,-2.643196 c 0.131222,-0.131222 0.131222,-0.356175 0,-0.506144 v 0 z"
       id="path3"
       style="fill:#5fe4cb;fill-opacity:1;stroke-width:0.264583" /></g></svg>
