<?xml version="1.0" encoding="UTF-8"?>
<svg id="Camada_1" xmlns="http://www.w3.org/2000/svg" version="1.1" viewBox="0 0 110 135">
  <!-- Generator: Adobe Illustrator 29.5.1, SVG Export Plug-In . SVG Version: 2.1.0 Build 141)  -->
  <path d="M99.6,58l-1.7-1.6c-1.3-1.3-2.6-2.2-3.9-2.8v-3c0-10.4-4.1-20.2-11.5-27.6s-17.2-11.5-27.6-11.5-20.2,4.1-27.6,11.5c-7.4,7.4-11.5,17.2-11.5,27.6v3c-1.3.6-2.7,1.6-3.9,2.8l-1.7,1.6c-1.2,1.2-1.9,2.8-1.9,4.5v8.7c0,1.7.7,3.3,1.9,4.5l1.7,1.6c2.5,2.5,5.2,3.8,8,3.8h2.3c1.5,0,2.9-.6,3.9-1.6,1-1,1.6-2.4,1.6-3.9v-25c0-7.4,3-14.3,8.3-19.5,5.3-5.2,12.4-7.8,19.8-7.5,14.3.5,26,13,26,27.8v24.3c0,2.7,2,5,4.7,5.4-1.2,3.3-3,6.4-5.2,9-4.4,5.1-10.7,8.1-20.8,9.8-.9-2.2-3.1-3.8-5.7-3.8s-6.2,2.8-6.2,6.2,2.8,6.2,6.2,6.2,5.4-2.1,6-4.8c8.2-1.4,17.1-3.9,23.3-11.1,2.8-3.3,5-7.1,6.4-11.4h.6c.2,0,.5,0,.7-.1l1.5-.6h0c1.5-.6,3-1.6,4.4-3l1.7-1.6c1.2-1.2,1.9-2.8,1.9-4.5v-8.7c0-1.7-.7-3.3-1.9-4.5h0ZM55,104.7c-1.3,0-2.4-1.1-2.4-2.4s1.1-2.4,2.4-2.4,2.4,1.1,2.4,2.4-1.1,2.4-2.4,2.4ZM97.7,71.2c0,.7-.3,1.3-.8,1.8l-1.7,1.6c-1.1,1-2.1,1.8-3.2,2.2l-1.2.5h-3.5c-.9,0-1.6-.8-1.6-1.8v-24.3c0-16.8-13.3-30.9-29.6-31.5-8.4-.3-16.5,2.7-22.5,8.6-6.1,5.9-9.5,13.8-9.5,22.2v25c0,.5-.2.9-.5,1.2s-.8.5-1.2.5h-2.3c-1.7,0-3.5-.9-5.4-2.7l-1.7-1.6c-.5-.5-.8-1.1-.8-1.8v-8.7c0-.7.3-1.3.8-1.8l1.7-1.6c1.2-1.2,2.5-2,3.6-2.4.8-.2,1.4-1,1.4-1.8v-4.2c0-9.4,3.7-18.2,10.4-24.9s15.5-10.4,24.9-10.4,18.2,3.7,24.9,10.4c6.7,6.7,10.4,15.5,10.4,24.9v4.2c0,.8.5,1.5,1.3,1.8,1.2.4,2.5,1.2,3.7,2.4l1.7,1.6c.5.5.8,1.1.8,1.8v8.7h0Z"/>
  <path d="M78.3,57.4c0-6.6-2.8-13-7.8-17.4s-11.6-6.5-18.2-5.8c-10.8,1.2-19.4,9.9-20.5,20.7-.6,6.2,1.1,12.3,5,17.1v10.7c0,1,.5,1.8,1.4,2.2.3.2.7.2,1,.2.6,0,1.1-.2,1.6-.6l6-5.3c2.6,1,5.4,1.5,8.2,1.5,12.9,0,23.3-10.5,23.3-23.3h0ZM45.2,75.7l-4.6,4v-8.4c0-.5-.2-.9-.5-1.2v-.2c-3.5-4.1-5.1-9.3-4.6-14.6.9-9,8.2-16.3,17.2-17.4,5.7-.6,11.1,1.1,15.3,4.9,4.2,3.7,6.5,9,6.5,14.6,0,10.8-8.8,19.6-19.6,19.6s-5.4-.6-7.8-1.6c-.7-.3-1.4-.2-2,.3h0Z"/>
  <path d="M66.2,49c-.7-.7-1.9-.7-2.7,0l-12.8,12.8-4.4-4.4c-.7-.7-1.9-.7-2.7,0s-.7,1.9,0,2.7l5.7,5.7c.4.4.8.5,1.3.5s1-.2,1.3-.5l14.1-14.1c.7-.7.7-1.9,0-2.7h0Z"/>
</svg>